# xmcd
#
# Track frame offsets:
# 150
# 15342
# 31475
# 46964
# 63930
# 77454
# 91763
# 109554
# 124948
# 142388
# 160714
# 176020
# 194145
# 207286
# 221634
#
# Disc length: 3174 seconds
#
#
# Revision: 0
# Processed by: cddbd v1.5.2PL0 Copyright (c) Steve Scherf et al.
# Submitted via: FreeRIP 2.52 
#
DISCID=ce0c640f
DTITLE=The Others - The Devil Made Me Do It
DYEAR=2006
DGENRE=Blues
TTITLE0=The Devil Made Me Do It
TTITLE1=No Time To Kill
TTITLE2=The Shadow From Sandy Creek
TTITLE3=Mad Dog
TTITLE4=The Surrender Of Johnny Vane
TTITLE5=Smiling Johnny
TTITLE6=Thunderbolt
TTITLE7=Beechworth Special
TTITLE8=Out On Highway One
TTITLE9=Black And Flashing Silver
TTITLE10=Night Out On The Highway
TTITLE11=The Best Part Of Midnight
TTITLE12=Hands Off Of You (I Just Can't Keep My)
TTITLE13=Real Flash Coves
TTITLE14=Monday Morning In Glenrowan
EXTD=
EXTT0=
EXTT1=
EXTT2=
EXTT3=
EXTT4=
EXTT5=
EXTT6=
EXTT7=
EXTT8=
EXTT9=
EXTT10=
EXTT11=
EXTT12=
EXTT13=
EXTT14=
PLAYORDER=
